# xmcd
#
# Track frame offsets:
#	150
#	12543
#	23710
#	33859
#	47965
#	62123
#	76948
#	88180
#	99622
#	116562
#	129780
#	139550
#
# Disc length: 2008 seconds
#
# Revision: 1
# Processed by: cddbd v1.4PL0 Copyright (c) Steve Scherf et al.
# Submitted via: CDmax 1.9
#
DISCID=9507d60c
DTITLE=Just Bluegrass - Road of Illusion
DYEAR=2002
DGENRE=Bluegrass
TTITLE0=Bluegrass Funk 101
TTITLE1=No Mother or Dad
TTITLE2=Head Over Heals
TTITLE3=Because I Love You
TTITLE4=Lord I Want to Be
TTITLE5=Remington Ride
TTITLE6=Road of Illusion
TTITLE7=It's Mighty Dark To Travel
TTITLE8=A Good Woman's Love
TTITLE9=It's Done
TTITLE10=When It Rains
TTITLE11=One Way Track
EXTD=Just Bluegrass - An Ohio/USA Bluegrass Band\nwww.justbluegrass.com\nDistr
EXTD=ibuted by M8 Distribution - www.m8.com
EXTT0=
EXTT1=
EXTT2=
EXTT3=
EXTT4=
EXTT5=
EXTT6=
EXTT7=
EXTT8=
EXTT9=
EXTT10=
EXTT11=
PLAYORDER=
